<?xml version="1.0" encoding="UTF-8"?>
<svg version="1.1" viewBox="0 0 1800 1440" width="1280" height="980" xmlns="http://www.w3.org/2000/svg">
<path transform="translate(0)" d="m0 0h1800v1440h-1800z" fill="#FFFFFF"/>
<path transform="translate(713,655)" d="m0 0h11l122 12 19 2 1 4-5 161-1 20-14-1-138-15-4-1v-18l6-124 2-33z" fill="#00697F"/>
<path transform="translate(905,675)" d="m0 0 21 3 101 17 28 5 2 1 1 7 5 151v12l-14-1-49-5-87-8-10-1-1-1 1-98 1-80z" fill="#045752"/>
<path transform="translate(877,343)" d="m0 0h20l15 3 12 5 10 6 9 8 9 14 5 13 4 19 3 4h8l17-4 7-1h21l13 4 6 4 6 5 5 8 3 9 1 14-3 15-5 12-9 14-14 14-1 3 5 2 17 8 37 12 42 11 9 2-4 2-29 1-8 1 5 4 19 13 3 4-4 1-27-5-25-6-15-5-16-8-10-7-10-9-7-6-3-3-6 1-16 5-7 1h-11l-12-3-9-6-6-7-2-7 1-9 6-9 10-7 8-3 4-1h11l13 4 12 6 5 4h2l8-16 2-7v-12l-4-11-8-7-6-2h-16l-17 5-12 5h-7l-5-5 2-21-2-13-6-12-8-9-14-9-9-4-9-2h-16l-13 4-9 6-7 7-8 14-3 11-1 7v11l3 15 5 13 9 15 7 10 8 17 2 13-4 9-8 5-14 1-10-2-9-4-11-7-13-8-16-9-21-8-16-4-6-1h-22l-18 4-16 8-10 8-9 9-10 13-1-4 7-20 8-13 9-10 9-7v-2l-26-2 4-4 8-5 13-5 13-2h14l20 3 23 7 19 8 16 8 19 9 7 2h6l4-1-1-10-10-19-6-12-4-13-2-11v-20l3-14 4-10 9-13 9-9 13-8 20-7z" fill="#CB1D56"/>
<path transform="translate(696,518)" d="m0 0 8 1 52 12 67 16 52 12 4 2-1 20-5 63-2 1-182-29-6-2 1-13 7-47z" fill="#781D54"/>
<path transform="translate(915,569)" d="m0 0 11 1 77 16 85 18 1 4-12 69-1 2-17-2-133-22-17-3-1-1v-11z" fill="#781D54"/>
<path transform="translate(1109,900)" d="m0 0h31v107l-1 1h-28l-2-7-4 2-4 4-9 4-4 1h-12l-12-5-8-6-7-8-5-12-2-16 2-12 4-9 6-8 8-7 10-4 4-1h12l14 5 7 3-1-2v-20z" fill="#050204"/>
<path transform="translate(997,900)" d="m0 0h32v107l-1 1h-27l-3-6-5 2-5 4-10 4h-13l-10-4-10-7-6-7-4-8-2-6-1-7v-13l3-12 6-9 5-6 10-6 8-3 9-1 14 4 7 4 4 1-1-7z" fill="#030203"/>
<path transform="translate(609,924)" d="m0 0h13l13 3 11 6 10 10 5 10 2 9v12l-3 12-6 9-7 7-8 5-13 4-5 1h-9l-12-3-9-4-8-6-6-7-5-10-2-7v-14l3-10 5-9 6-7 10-6 11-4z" fill="#040204"/>
<path transform="translate(778,900)" d="m0 0h33v55l5-4 8-11 9-12h35l-2 4-11 13-13 17-4 5 2 4 11 13 12 14 6 8v2h-34l-7-7v-2l-4-2-9-11-5-4v25l-1 1h-30l-1-1z" fill="#050305"/>
<path transform="translate(1193,924)" d="m0 0h11l12 3 9 5 7 6 6 10 3 10v15l-3 3h-53l6 9 5 3 7-1 8-4 5 1 19 8v4l-9 8-10 5-13 3h-8l-12-3-12-6-9-9-6-12-2-8v-14l3-10 6-10 7-7 14-7z" fill="#040204"/>
<path transform="translate(476,900)" d="m0 0h39l9 21v2h3l3-9 7-14h38l-2 6-14 25-15 28-1 2-1 47h-33l-1-47-8-16-12-22-10-18z" fill="#030203"/>
<path transform="translate(702,927)" d="m0 0h7l1 52 2 3h11l2-1 1-5 1-48 31-1 1 1v50l-3 12-6 8-8 7-10 5-10 2h-9l-12-3-11-6-7-8-5-10-1-5v-52z" fill="#040204"/>
<path transform="translate(1283,924)" d="m0 0h9l16 4 9 6-2 5-9 12-15-3h-9v3l26 9 6 4 5 5 3 5 1 4v10l-4 10-9 8-11 4-11 2h-9l-16-4-8-4-5-6 7-11 3-6 6 1 11 4 14 1-3-3-21-8-9-7-5-8-1-5v-7l3-9 4-6 11-7z" fill="#040204"/>
<path transform="translate(647,567)" d="m0 0h2l3 36 2 38 30 5 4 1v18l-7 175h-128v-1l94-9 21-1 3-83 3-77v-10l-13-3-18-3-2-2 5-76z" fill="#4D3146"/>
<path transform="translate(1117,621)" d="m0 0h1v11l-6 81-1 6-18-1 11 132 1 6 11 2 67 9 31 4v2l-101-3-21-1-3-31-9-108-1-13v-13l20 1 4-16 13-65z" fill="#4D3147"/>
<path transform="translate(990,316)" d="m0 0h7l8 4 4 8 2 11 7-1h13l6 3 4 6 1 3v9l-3 8-6 7-12 7-16 5-21 3-4-1-4-21-1-9v-20l2-10 6-9z" fill="#DAADAB"/>
<path transform="translate(746,361)" d="m0 0 9 2 6 4 6 7 4 10v19l-5 24-1 3-16-2-22-6-9-4-10-6-4-5-2-4v-7l3-5 5-5 3-1h11l7 1 2-13 7-9z" fill="#00697F"/>
<path transform="translate(885,928)" d="m0 0h32v79l-1 1h-31z" fill="#050304"/>
<path transform="translate(957,256)" d="m0 0 6 2 5 6 1 4-4 7h3l-1 7-6 11-9 12h-6l-9-7-12-11-6-9-1-8 1-2h2v-3h2v-2h2v-3l10 2 5 4v2l4-2 3-6 6-1v-2z" fill="#CB1D56"/>
<path transform="translate(946,492)" d="m0 0h12l10 3 13 9 3 3v4l-12 7-10 3h-16l-8-5-3-4-2-8 4-6 6-5z" fill="#F7F3F3"/>
<path transform="translate(1097,380)" d="m0 0h10l8 3 6 5 3 5 1 4v9l-3 7-7 6-8 2-10-1-7-6-2-4v-9l3-6 6-3h9l5 6v6l-5 1-4-6h-6l-1 8 1 5 4 1h10l6-4 1-2v-11l-4-6-3-2-11-1-15 3-17 6-10 5-5-1 2-5 19-9 16-5z" fill="#7E1D54"/>
<path transform="translate(810,296)" d="m0 0h11l7 3 5 5 2 3 1 11-2 7-5 6-4 2h-12l-6-5-2-5 1-9 3-3 6-2 5 1 1 4-9 4 1 6 4 2h7l4-6 1-9-3-6-5-2h-9l-6 3-5 8-2 8v15l2 17v10h-7l-1-1-1-9v-32l3-12 5-8 5-4z" fill="#DAABAA"/>
<path transform="translate(1085,952)" d="m0 0h12l6 3 4 5 1 3v9l-4 7-5 4-11 1-7-2-5-6-2-5v-7l3-6 6-5z" fill="#F8F7F7"/>
<path transform="translate(975,952)" d="m0 0h12l6 4 4 6 1 6-3 9-6 6-10 1-8-2-5-5-3-7 1-7 4-7z" fill="#F8F7F7"/>
<path transform="translate(896,892)" d="m0 0h8l7 3 5 5 2 4v7l-3 5-5 4-4 2h-11l-8-4-5-8 1-8 6-7z" fill="#050305"/>
<path transform="translate(614,952)" d="m0 0 8 1 5 3 3 4 1 3v10l-3 5-6 5h-11l-5-3-4-7-1-7 4-9 6-4z" fill="#F8F7F7"/>
<path transform="translate(657,311)" d="m0 0h14l11 5v2l4 2 1 3 5 2 1 4h-3l-10-8-8-4-4-1h-9l-7 3-4 4-2 4 1 9 1 4 5 1 5 3 11-1 1-2h2l-1-6v-4l-6-1 1-3 6 1 3 4v7l-4 6-6 3h-8l-9-5-6-7-1-2v-10l6-8z" fill="#00697F"/>
<path transform="translate(1126,861)" d="m0 0h13l59 8 16 2v2l-26-1-35-2v-1l4-1h-11l-9-1-3-1v-2h-7z" fill="#372637"/>
<path transform="translate(1194,947)" d="m0 0h9l7 6 1 6-4 1h-16l-7-1 1-4 5-6z" fill="#F6F1F1"/>
<path transform="translate(1117,621)" d="m0 0h1v11l-3 39-2-2-2 11-2 5h-1v-21l8-40z" fill="#4D2D44"/>
<path transform="translate(1061,827)" d="m0 0h1l1 44-14-1 4-1-1-4-3-3-1-2v-6l3-2 2 6h3v2l4-1z" fill="#00687E"/>
<path transform="translate(636,831)" d="m0 0h18v1l-7 2-40 3-4 1-16 1-6-1 3-2z" fill="#170D14"/>
<path transform="translate(747,376)" d="m0 0 5 1 1 3 3 1 1 9-1 6-4 1-1-2-1-6h-3-3l-1-7 3-5z" fill="#DBAEAC"/>
<path transform="translate(1126,861)" d="m0 0h13l29 4 2 2-15 1h-9l-9-1-3-1v-2h-7z" fill="#100A0F"/>
<path transform="translate(693,326)" d="m0 0 7 6 12 15 1 5-4 1-3-6-5-5-9-11z" fill="#BDA4A5"/>
<path transform="translate(954,262)" d="m0 0 4 1 1 8-2 4v2h-2l-1 2h-2v-2h-2l-1-7z" fill="#DBAEAC"/>
<path transform="translate(845,406)" d="m0 0h3l-3 9-2 10v13l2 15-2-2-2-7-1-8v-12l2-11z" fill="#DBAEAC"/>
<path transform="translate(604,834)" d="m0 0h8v1h-5v2l-4 1-16 1-6-1 3-2z" fill="#19121A"/>
<path transform="translate(1112,661)" d="m0 0 1 4-2 15-2 5h-1v-21h2v-2z" fill="#070407"/>
<path transform="translate(572,837)" d="m0 0h9l7 2v1h-35v-1z" fill="#4F3147"/>
<path transform="translate(887,381)" d="m0 0 13 1 8 4 1 2-5-1-9-2-13-1 1-2z" fill="#DBAEAC"/>
<path transform="translate(924,259)" d="m0 0h7l4 2-3 1-4-1-3-1v3h-2v2h-2v3h-2l-1 7-2-4 2-7z" fill="#DBAEAC"/>
<path transform="translate(647,558)" d="m0 0h2l2 18v12h-1l-1-11v-10h-2v8h-1v-12z" fill="#DBAEAC"/>
<path transform="translate(665,326)" d="m0 0 4 1h-3v2l3 2-11 3-2-1 1-4z" fill="#D6ACAB"/>
<path transform="translate(615,833)" d="m0 0h16l-1 2-12 1h-11v-1z" fill="#10090E"/>
<path transform="translate(953,255)" d="m0 0h7l3 3-10-1v2l-7 2 1-3z" fill="#DBAEAC"/>
<path transform="translate(969,267)" d="m0 0 2 3-2 9-1-4h-3l2-4z" fill="#DBAEAC"/>
</svg>
